<svg width="16" height="17" viewBox="0 0 16 17" fill="none" xmlns="http://www.w3.org/2000/svg">
<g clip-path="url(#clip0_1_9043)">
<path d="M15.4286 2.55664H11.3429C10.4661 2.55664 9.60893 2.81001 8.87143 3.288L8 3.85044L7.12857 3.288C6.39181 2.8101 5.53371 2.55617 4.65714 2.55664H0.571429C0.255357 2.55664 0 2.8136 0 3.13166V13.3383C0 13.6564 0.255357 13.9133 0.571429 13.9133H4.65714C5.53393 13.9133 6.39107 14.1667 7.12857 14.6447L7.92143 15.1586C7.94464 15.173 7.97143 15.182 7.99821 15.182C8.025 15.182 8.05179 15.1748 8.075 15.1586L8.86786 14.6447C9.60714 14.1667 10.4661 13.9133 11.3429 13.9133H15.4286C15.7446 13.9133 16 13.6564 16 13.3383V3.13166C16 2.8136 15.7446 2.55664 15.4286 2.55664ZM4.65714 12.6195H1.28571V3.85044H4.65714C5.28929 3.85044 5.90357 4.03193 6.43393 4.37515L7.30536 4.93759L7.42857 5.01846V13.3203C6.57857 12.8603 5.62857 12.6195 4.65714 12.6195ZM14.7143 12.6195H11.3429C10.3714 12.6195 9.42143 12.8603 8.57143 13.3203V5.01846L8.69464 4.93759L9.56607 4.37515C10.0964 4.03193 10.7107 3.85044 11.3429 3.85044H14.7143V12.6195ZM5.94464 6.15053H2.62679C2.55714 6.15053 2.5 6.21163 2.5 6.2853V7.09393C2.5 7.1676 2.55714 7.2287 2.62679 7.2287H5.94286C6.0125 7.2287 6.06964 7.1676 6.06964 7.09393V6.2853C6.07143 6.21163 6.01429 6.15053 5.94464 6.15053ZM9.92857 6.2853V7.09393C9.92857 7.1676 9.98571 7.2287 10.0554 7.2287H13.3714C13.4411 7.2287 13.4982 7.1676 13.4982 7.09393V6.2853C13.4982 6.21163 13.4411 6.15053 13.3714 6.15053H10.0554C9.98571 6.15053 9.92857 6.21163 9.92857 6.2853ZM5.94464 8.66625H2.62679C2.55714 8.66625 2.5 8.72735 2.5 8.80103V9.60965C2.5 9.68333 2.55714 9.74442 2.62679 9.74442H5.94286C6.0125 9.74442 6.06964 9.68333 6.06964 9.60965V8.80103C6.07143 8.72735 6.01429 8.66625 5.94464 8.66625ZM13.3732 8.66625H10.0554C9.98571 8.66625 9.92857 8.72735 9.92857 8.80103V9.60965C9.92857 9.68333 9.98571 9.74442 10.0554 9.74442H13.3714C13.4411 9.74442 13.4982 9.68333 13.4982 9.60965V8.80103C13.5 8.72735 13.4429 8.66625 13.3732 8.66625Z" fill="white" fill-opacity="0.45"/>
</g>
<defs>
<clipPath id="clip0_1_9043">
<rect width="16" height="16.1006" fill="white" transform="translate(0 0.811401)"/>
</clipPath>
</defs>
</svg>
